<svg id="visual" viewBox="0 0 900 600" width="900" height="600" xmlns="http://www.w3.org/2000/svg" xmlns:xlink="http://www.w3.org/1999/xlink" version="1.1"><rect x="0" y="0" width="900" height="600" fill="#071e30"></rect><defs><linearGradient id="grad1_0" x1="33.3%" y1="100%" x2="100%" y2="0%"><stop offset="20%" stop-color="#1d6898" stop-opacity="1"></stop><stop offset="80%" stop-color="#1d6898" stop-opacity="1"></stop></linearGradient></defs><defs><linearGradient id="grad1_1" x1="33.3%" y1="100%" x2="100%" y2="0%"><stop offset="20%" stop-color="#1d6898" stop-opacity="1"></stop><stop offset="80%" stop-color="#134162" stop-opacity="1"></stop></linearGradient></defs><defs><linearGradient id="grad1_2" x1="33.3%" y1="100%" x2="100%" y2="0%"><stop offset="20%" stop-color="#071e30" stop-opacity="1"></stop><stop offset="80%" stop-color="#134162" stop-opacity="1"></stop></linearGradient></defs><defs><linearGradient id="grad2_0" x1="0%" y1="100%" x2="66.7%" y2="0%"><stop offset="20%" stop-color="#1d6898" stop-opacity="1"></stop><stop offset="80%" stop-color="#1d6898" stop-opacity="1"></stop></linearGradient></defs><defs><linearGradient id="grad2_1" x1="0%" y1="100%" x2="66.7%" y2="0%"><stop offset="20%" stop-color="#134162" stop-opacity="1"></stop><stop offset="80%" stop-color="#1d6898" stop-opacity="1"></stop></linearGradient></defs><defs><linearGradient id="grad2_2" x1="0%" y1="100%" x2="66.7%" y2="0%"><stop offset="20%" stop-color="#134162" stop-opacity="1"></stop><stop offset="80%" stop-color="#071e30" stop-opacity="1"></stop></linearGradient></defs><g transform="translate(900, 600)"><path d="M-540.8 0C-509.1 -39.6 -477.3 -79.2 -466.5 -125C-455.8 -170.8 -466 -222.8 -442.5 -255.5C-419.1 -288.2 -362.1 -301.6 -323.9 -323.9C-285.6 -346.1 -266.1 -377.1 -240 -415.7C-213.9 -454.2 -181.1 -500.3 -140 -522.4C-98.9 -544.5 -49.4 -542.7 0 -540.8L0 0Z" fill="#0d2f48"></path><path d="M-360.6 0C-339.4 -26.4 -318.2 -52.8 -311 -83.3C-303.8 -113.9 -310.6 -148.5 -295 -170.3C-279.4 -192.1 -241.4 -201.1 -215.9 -215.9C-190.4 -230.7 -177.4 -251.4 -160 -277.1C-142.6 -302.8 -120.7 -333.5 -93.3 -348.3C-65.9 -363 -33 -361.8 0 -360.6L0 0Z" fill="#18547c"></path><path d="M-180.3 0C-169.7 -13.2 -159.1 -26.4 -155.5 -41.7C-151.9 -56.9 -155.3 -74.3 -147.5 -85.2C-139.7 -96.1 -120.7 -100.5 -108 -108C-95.2 -115.4 -88.7 -125.7 -80 -138.6C-71.3 -151.4 -60.4 -166.8 -46.7 -174.1C-33 -181.5 -16.5 -180.9 0 -180.3L0 0Z" fill="#1d6898"></path></g><g transform="translate(0, 0)"><path d="M540.8 0C501.3 37.7 461.7 75.4 454 121.6C446.3 167.9 470.5 222.5 459.9 265.5C449.2 308.5 403.7 339.7 361.3 361.3C319 383 279.7 395.1 245 424.4C210.3 453.6 180.1 500.1 140 522.4C99.9 544.7 49.9 542.8 0 540.8L0 0Z" fill="#0d2f48"></path><path d="M360.6 0C334.2 25.1 307.8 50.3 302.7 81.1C297.5 111.9 313.7 148.4 306.6 177C299.5 205.6 269.1 226.5 240.9 240.9C212.6 255.3 186.5 263.4 163.3 282.9C140.2 302.4 120 333.4 93.3 348.3C66.6 363.1 33.3 361.8 0 360.6L0 0Z" fill="#18547c"></path><path d="M180.3 0C167.1 12.6 153.9 25.1 151.3 40.5C148.8 56 156.8 74.2 153.3 88.5C149.7 102.8 134.6 113.2 120.4 120.4C106.3 127.7 93.2 131.7 81.7 141.5C70.1 151.2 60 166.7 46.7 174.1C33.3 181.6 16.6 180.9 0 180.3L0 0Z" fill="#1d6898"></path></g></svg>